<svg width="20" height="21" viewBox="0 0 20 21" fill="none" xmlns="http://www.w3.org/2000/svg">
<path d="M17.2981 8.066H2.70211C2.40677 8.06662 2.11538 8.13384 1.84962 8.26265C1.58385 8.39146 1.35056 8.57856 1.16711 8.81C0.984875 9.04116 0.857514 9.31068 0.794632 9.59824C0.731751 9.8858 0.734991 10.1839 0.804108 10.47L2.36911 16.878C2.59529 17.7038 3.08734 18.432 3.76911 18.95C4.45111 19.469 5.28611 19.75 6.14511 19.75H13.8531C14.7121 19.75 15.5471 19.469 16.2291 18.95C16.9109 18.432 17.4029 17.7038 17.6291 16.878L19.1941 10.471C19.2995 10.0391 19.2532 9.58403 19.0632 9.18209C18.8731 8.78015 18.5508 8.45568 18.1501 8.263C17.8839 8.13385 17.592 8.0665 17.2961 8.066M6.08711 11.96V15.855M10.0001 11.96V15.855M13.9131 11.96V15.855M16.8481 8.066C16.8478 7.17005 16.6704 6.28299 16.3261 5.45582C15.9819 4.62864 15.4775 3.87765 14.8421 3.246C13.5553 1.96687 11.8145 1.24924 10.0001 1.25C8.18574 1.24924 6.44487 1.96687 5.15811 3.246C4.52287 3.87773 4.01873 4.62876 3.67464 5.45593C3.33056 6.2831 3.15332 7.17012 3.15311 8.066" stroke="black" stroke-width="1.5" stroke-linecap="round" stroke-linejoin="round"/>
</svg>
